# xmcd
#
# Track frame offsets: 
#        150
#        16222
#        29120
#        44905
#        59432
#        71657
#        89070
#        107820
#        115160
#        135325
#        156875
#        176150
#        194020
#        210970
#        234552
#
# Disc length: 4389 seconds
#
# Revision: 1
# Processed by: cddbd v1.5.2PL0 Copyright (c) Steve Scherf et al.
# Submitted via: ExactAudioCopy v0.99pb5
#
DISCID=e011230f
DTITLE=Everclear - Slow Motion Daydream [Japanese Version]
DYEAR=2003
DGENRE=Rock
TTITLE0=How To Win Friends And Influence People
TTITLE1=Blackjack
TTITLE2=I Want To Die A Beautiful Death
TTITLE3=Volvo Driving Soccer Mom
TTITLE4=Science Fiction
TTITLE5=New Blue Champion
TTITLE6=TV Show
TTITLE7=Chrysanthemum
TTITLE8=Sunshine (That Acid Summer)
TTITLE9=A Beautiful Life
TTITLE10=New York Times
TTITLE11=White Noise [Hidden Track]
TTITLE12=Your New Disease [Bonus Track]
TTITLE13=Happy [Bonus Track]
TTITLE14=Data Track
EXTD=YEAR: 2003
EXTT0=
EXTT1=
EXTT2=
EXTT3=
EXTT4=
EXTT5=
EXTT6=
EXTT7=
EXTT8=
EXTT9=
EXTT10=
EXTT11=
EXTT12=
EXTT13=
EXTT14=
PLAYORDER=
